<mxfile host="app.diagrams.net" modified="2021-05-21T04:20:56.191Z" agent="5.0 (X11)" etag="mUcbMNykGg9Y6DBwL06F" version="14.6.13" type="github" pages="3">
  <diagram id="R2lEEEUBdFMjLlhIrx00" name="DROPSHIP DATABASE">
    <mxGraphModel dx="1594" dy="911" grid="1" gridSize="10" guides="1" tooltips="1" connect="1" arrows="1" fold="1" page="1" pageScale="1" pageWidth="850" pageHeight="1100" math="0" shadow="0" extFonts="Permanent Marker^https://fonts.googleapis.com/css?family=Permanent+Marker">
      <root>
        <mxCell id="0" />
        <mxCell id="1" parent="0" />
        <mxCell id="HgApALuhV2_PAPe5fxaL-1" value="ID" style="rounded=0;whiteSpace=wrap;html=1;" vertex="1" parent="1">
          <mxGeometry x="170" y="80" width="120" height="60" as="geometry" />
        </mxCell>
        <mxCell id="HgApALuhV2_PAPe5fxaL-2" value="JENIS BARANG BERAT" style="rounded=0;whiteSpace=wrap;html=1;fillColor=#f8cecc;strokeColor=#b85450;" vertex="1" parent="1">
          <mxGeometry x="1220" y="80" width="120" height="60" as="geometry" />
        </mxCell>
        <mxCell id="HgApALuhV2_PAPe5fxaL-3" value="RESI" style="rounded=0;whiteSpace=wrap;html=1;" vertex="1" parent="1">
          <mxGeometry x="1090" y="80" width="120" height="60" as="geometry" />
        </mxCell>
        <mxCell id="HgApALuhV2_PAPe5fxaL-4" value="USER_ID" style="rounded=0;whiteSpace=wrap;html=1;" vertex="1" parent="1">
          <mxGeometry x="830" y="80" width="120" height="60" as="geometry" />
        </mxCell>
        <mxCell id="HgApALuhV2_PAPe5fxaL-5" value="UPDATED AT" style="rounded=0;whiteSpace=wrap;html=1;" vertex="1" parent="1">
          <mxGeometry x="700" y="80" width="120" height="60" as="geometry" />
        </mxCell>
        <mxCell id="HgApALuhV2_PAPe5fxaL-6" value="CREATED AT" style="rounded=0;whiteSpace=wrap;html=1;" vertex="1" parent="1">
          <mxGeometry x="570" y="80" width="120" height="60" as="geometry" />
        </mxCell>
        <mxCell id="HgApALuhV2_PAPe5fxaL-7" value="PHOTO" style="rounded=0;whiteSpace=wrap;html=1;" vertex="1" parent="1">
          <mxGeometry x="435" y="80" width="120" height="60" as="geometry" />
        </mxCell>
        <mxCell id="HgApALuhV2_PAPe5fxaL-8" value="NAME" style="rounded=0;whiteSpace=wrap;html=1;" vertex="1" parent="1">
          <mxGeometry x="300" y="80" width="120" height="60" as="geometry" />
        </mxCell>
        <mxCell id="HgApALuhV2_PAPe5fxaL-9" value="COURIER_ID" style="rounded=0;whiteSpace=wrap;html=1;" vertex="1" parent="1">
          <mxGeometry x="960" y="80" width="120" height="60" as="geometry" />
        </mxCell>
        <mxCell id="HgApALuhV2_PAPe5fxaL-10" value="ID" style="rounded=0;whiteSpace=wrap;html=1;" vertex="1" parent="1">
          <mxGeometry x="40" y="250" width="120" height="60" as="geometry" />
        </mxCell>
        <mxCell id="HgApALuhV2_PAPe5fxaL-11" value="UPDATED AT" style="rounded=0;whiteSpace=wrap;html=1;" vertex="1" parent="1">
          <mxGeometry x="1350" y="250" width="120" height="60" as="geometry" />
        </mxCell>
        <mxCell id="HgApALuhV2_PAPe5fxaL-12" value="CREATED AT" style="rounded=0;whiteSpace=wrap;html=1;" vertex="1" parent="1">
          <mxGeometry x="1220" y="250" width="120" height="60" as="geometry" />
        </mxCell>
        <mxCell id="HgApALuhV2_PAPe5fxaL-13" value="PHOTO" style="rounded=0;whiteSpace=wrap;html=1;" vertex="1" parent="1">
          <mxGeometry x="1090" y="250" width="120" height="60" as="geometry" />
        </mxCell>
        <mxCell id="HgApALuhV2_PAPe5fxaL-14" value="USER_ID" style="rounded=0;whiteSpace=wrap;html=1;" vertex="1" parent="1">
          <mxGeometry x="960" y="250" width="120" height="60" as="geometry" />
        </mxCell>
        <mxCell id="HgApALuhV2_PAPe5fxaL-15" value="CITY" style="rounded=0;whiteSpace=wrap;html=1;fillColor=#d5e8d4;strokeColor=#82b366;" vertex="1" parent="1">
          <mxGeometry x="830" y="250" width="120" height="60" as="geometry" />
        </mxCell>
        <mxCell id="HgApALuhV2_PAPe5fxaL-16" value="BERAT" style="rounded=0;whiteSpace=wrap;html=1;fillColor=#d5e8d4;strokeColor=#82b366;" vertex="1" parent="1">
          <mxGeometry x="700" y="250" width="120" height="60" as="geometry" />
        </mxCell>
        <mxCell id="HgApALuhV2_PAPe5fxaL-17" value="JENIS BARANG" style="rounded=0;whiteSpace=wrap;html=1;fillColor=#d5e8d4;strokeColor=#82b366;" vertex="1" parent="1">
          <mxGeometry x="570" y="250" width="120" height="60" as="geometry" />
        </mxCell>
        <mxCell id="HgApALuhV2_PAPe5fxaL-18" value="COURIER_ID" style="rounded=0;whiteSpace=wrap;html=1;" vertex="1" parent="1">
          <mxGeometry x="440" y="250" width="120" height="60" as="geometry" />
        </mxCell>
        <mxCell id="HgApALuhV2_PAPe5fxaL-19" value="NAME" style="rounded=0;whiteSpace=wrap;html=1;" vertex="1" parent="1">
          <mxGeometry x="305" y="250" width="120" height="60" as="geometry" />
        </mxCell>
        <mxCell id="HgApALuhV2_PAPe5fxaL-20" value="RESI" style="rounded=0;whiteSpace=wrap;html=1;" vertex="1" parent="1">
          <mxGeometry x="170" y="250" width="120" height="60" as="geometry" />
        </mxCell>
        <mxCell id="HgApALuhV2_PAPe5fxaL-21" value="&lt;b&gt;&lt;font style=&quot;font-size: 18px&quot;&gt;CURRENT SYSTEM&lt;/font&gt;&lt;/b&gt;" style="text;html=1;align=center;verticalAlign=middle;resizable=0;points=[];autosize=1;strokeColor=none;" vertex="1" parent="1">
          <mxGeometry x="625" y="20" width="210" height="20" as="geometry" />
        </mxCell>
        <mxCell id="HgApALuhV2_PAPe5fxaL-22" value="&lt;b&gt;&lt;font style=&quot;font-size: 18px&quot;&gt;NEW SYSTEM&lt;/font&gt;&lt;/b&gt;" style="text;html=1;align=center;verticalAlign=middle;resizable=0;points=[];autosize=1;strokeColor=none;" vertex="1" parent="1">
          <mxGeometry x="650" y="180" width="160" height="20" as="geometry" />
        </mxCell>
      </root>
    </mxGraphModel>
  </diagram>
  <diagram id="0xsc-X7oiOjzj5KgLgap" name="DROPSHIP BUSINESS">
    <mxGraphModel dx="1355" dy="774" grid="1" gridSize="10" guides="1" tooltips="1" connect="1" arrows="1" fold="1" page="1" pageScale="1" pageWidth="850" pageHeight="1100" math="0" shadow="0">
      <root>
        <mxCell id="cv-qm6HC_WtGxdeyB2J5-0" />
        <mxCell id="cv-qm6HC_WtGxdeyB2J5-1" parent="cv-qm6HC_WtGxdeyB2J5-0" />
        <mxCell id="cv-qm6HC_WtGxdeyB2J5-4" value="" style="edgeStyle=orthogonalEdgeStyle;rounded=0;orthogonalLoop=1;jettySize=auto;html=1;" edge="1" parent="cv-qm6HC_WtGxdeyB2J5-1" source="cv-qm6HC_WtGxdeyB2J5-2" target="cv-qm6HC_WtGxdeyB2J5-3">
          <mxGeometry relative="1" as="geometry" />
        </mxCell>
        <mxCell id="cv-qm6HC_WtGxdeyB2J5-2" value="START" style="ellipse;whiteSpace=wrap;html=1;aspect=fixed;" vertex="1" parent="cv-qm6HC_WtGxdeyB2J5-1">
          <mxGeometry x="40" y="335" width="50" height="50" as="geometry" />
        </mxCell>
        <mxCell id="cv-qm6HC_WtGxdeyB2J5-6" value="" style="edgeStyle=orthogonalEdgeStyle;rounded=0;orthogonalLoop=1;jettySize=auto;html=1;" edge="1" parent="cv-qm6HC_WtGxdeyB2J5-1" source="cv-qm6HC_WtGxdeyB2J5-3" target="cv-qm6HC_WtGxdeyB2J5-5">
          <mxGeometry relative="1" as="geometry" />
        </mxCell>
        <mxCell id="cv-qm6HC_WtGxdeyB2J5-3" value="CREATE DROPSHIP" style="shape=parallelogram;perimeter=parallelogramPerimeter;whiteSpace=wrap;html=1;fixedSize=1;" vertex="1" parent="cv-qm6HC_WtGxdeyB2J5-1">
          <mxGeometry x="180" y="330" width="190" height="60" as="geometry" />
        </mxCell>
        <mxCell id="cv-qm6HC_WtGxdeyB2J5-9" value="" style="edgeStyle=orthogonalEdgeStyle;rounded=0;orthogonalLoop=1;jettySize=auto;html=1;" edge="1" parent="cv-qm6HC_WtGxdeyB2J5-1" source="cv-qm6HC_WtGxdeyB2J5-5" target="cv-qm6HC_WtGxdeyB2J5-8">
          <mxGeometry relative="1" as="geometry" />
        </mxCell>
        <mxCell id="cv-qm6HC_WtGxdeyB2J5-5" value="&lt;div&gt;INPUT DATA DROPSHIP&lt;/div&gt;" style="rounded=0;whiteSpace=wrap;html=1;" vertex="1" parent="cv-qm6HC_WtGxdeyB2J5-1">
          <mxGeometry x="440" y="330" width="180" height="60" as="geometry" />
        </mxCell>
        <mxCell id="cv-qm6HC_WtGxdeyB2J5-10" style="edgeStyle=orthogonalEdgeStyle;rounded=0;orthogonalLoop=1;jettySize=auto;html=1;exitX=1;exitY=0.5;exitDx=0;exitDy=0;entryX=1;entryY=0.5;entryDx=0;entryDy=0;" edge="1" parent="cv-qm6HC_WtGxdeyB2J5-1" source="cv-qm6HC_WtGxdeyB2J5-8" target="cv-qm6HC_WtGxdeyB2J5-5">
          <mxGeometry relative="1" as="geometry">
            <Array as="points">
              <mxPoint x="700" y="520" />
              <mxPoint x="700" y="360" />
            </Array>
          </mxGeometry>
        </mxCell>
        <mxCell id="cv-qm6HC_WtGxdeyB2J5-11" value="YES" style="edgeLabel;html=1;align=center;verticalAlign=middle;resizable=0;points=[];" vertex="1" connectable="0" parent="cv-qm6HC_WtGxdeyB2J5-10">
          <mxGeometry x="-0.0667" y="1" relative="1" as="geometry">
            <mxPoint as="offset" />
          </mxGeometry>
        </mxCell>
        <mxCell id="cv-qm6HC_WtGxdeyB2J5-12" value="&lt;b&gt;&lt;font style=&quot;font-size: 14px&quot;&gt;YES&lt;/font&gt;&lt;/b&gt;" style="edgeLabel;html=1;align=center;verticalAlign=middle;resizable=0;points=[];" vertex="1" connectable="0" parent="cv-qm6HC_WtGxdeyB2J5-10">
          <mxGeometry x="-0.0493" y="1" relative="1" as="geometry">
            <mxPoint as="offset" />
          </mxGeometry>
        </mxCell>
        <mxCell id="cv-qm6HC_WtGxdeyB2J5-14" value="&lt;b&gt;&lt;font style=&quot;font-size: 14px&quot;&gt;NO&lt;/font&gt;&lt;/b&gt;" style="edgeStyle=orthogonalEdgeStyle;rounded=0;orthogonalLoop=1;jettySize=auto;html=1;" edge="1" parent="cv-qm6HC_WtGxdeyB2J5-1" source="cv-qm6HC_WtGxdeyB2J5-8" target="cv-qm6HC_WtGxdeyB2J5-13">
          <mxGeometry relative="1" as="geometry">
            <Array as="points">
              <mxPoint x="530" y="590" />
              <mxPoint x="530" y="590" />
            </Array>
          </mxGeometry>
        </mxCell>
        <mxCell id="cv-qm6HC_WtGxdeyB2J5-8" value="VALIDASI MANDATORY?" style="rhombus;whiteSpace=wrap;html=1;" vertex="1" parent="cv-qm6HC_WtGxdeyB2J5-1">
          <mxGeometry x="465" y="470" width="130" height="100" as="geometry" />
        </mxCell>
        <mxCell id="cv-qm6HC_WtGxdeyB2J5-15" style="edgeStyle=orthogonalEdgeStyle;rounded=0;orthogonalLoop=1;jettySize=auto;html=1;exitX=0;exitY=0.5;exitDx=0;exitDy=0;entryX=0.5;entryY=1;entryDx=0;entryDy=0;" edge="1" parent="cv-qm6HC_WtGxdeyB2J5-1" source="cv-qm6HC_WtGxdeyB2J5-13" target="cv-qm6HC_WtGxdeyB2J5-3">
          <mxGeometry relative="1" as="geometry" />
        </mxCell>
        <mxCell id="cv-qm6HC_WtGxdeyB2J5-16" value="&lt;b&gt;&lt;font style=&quot;font-size: 14px&quot;&gt;YES&lt;/font&gt;&lt;/b&gt;" style="edgeLabel;html=1;align=center;verticalAlign=middle;resizable=0;points=[];" vertex="1" connectable="0" parent="cv-qm6HC_WtGxdeyB2J5-15">
          <mxGeometry x="0.325" relative="1" as="geometry">
            <mxPoint as="offset" />
          </mxGeometry>
        </mxCell>
        <mxCell id="cv-qm6HC_WtGxdeyB2J5-18" value="&lt;b&gt;&lt;font style=&quot;font-size: 14px&quot;&gt;NO&lt;/font&gt;&lt;/b&gt;" style="edgeStyle=orthogonalEdgeStyle;rounded=0;orthogonalLoop=1;jettySize=auto;html=1;" edge="1" parent="cv-qm6HC_WtGxdeyB2J5-1" source="cv-qm6HC_WtGxdeyB2J5-13" target="cv-qm6HC_WtGxdeyB2J5-17">
          <mxGeometry relative="1" as="geometry" />
        </mxCell>
        <mxCell id="cv-qm6HC_WtGxdeyB2J5-13" value="RESI GANDA?" style="rhombus;whiteSpace=wrap;html=1;" vertex="1" parent="cv-qm6HC_WtGxdeyB2J5-1">
          <mxGeometry x="465" y="630" width="130" height="100" as="geometry" />
        </mxCell>
        <mxCell id="cv-qm6HC_WtGxdeyB2J5-17" value="END" style="ellipse;whiteSpace=wrap;html=1;aspect=fixed;" vertex="1" parent="cv-qm6HC_WtGxdeyB2J5-1">
          <mxGeometry x="505" y="790" width="50" height="50" as="geometry" />
        </mxCell>
      </root>
    </mxGraphModel>
  </diagram>
  <diagram id="hvhLyjmE1mQvQhdA0O-5" name="MASTER">
    <mxGraphModel dx="1355" dy="774" grid="1" gridSize="10" guides="1" tooltips="1" connect="1" arrows="1" fold="1" page="1" pageScale="1" pageWidth="850" pageHeight="1100" math="0" shadow="0">
      <root>
        <mxCell id="Thk7iztbl-1dd6wseugb-0" />
        <mxCell id="Thk7iztbl-1dd6wseugb-1" parent="Thk7iztbl-1dd6wseugb-0" />
        <mxCell id="KpsWwVrqRsEsI4jULtM0-0" value="" style="edgeStyle=orthogonalEdgeStyle;rounded=0;orthogonalLoop=1;jettySize=auto;html=1;" edge="1" parent="Thk7iztbl-1dd6wseugb-1" source="KpsWwVrqRsEsI4jULtM0-1" target="KpsWwVrqRsEsI4jULtM0-3">
          <mxGeometry relative="1" as="geometry" />
        </mxCell>
        <mxCell id="KpsWwVrqRsEsI4jULtM0-1" value="START" style="ellipse;whiteSpace=wrap;html=1;aspect=fixed;" vertex="1" parent="Thk7iztbl-1dd6wseugb-1">
          <mxGeometry x="40" y="375" width="50" height="50" as="geometry" />
        </mxCell>
        <mxCell id="KpsWwVrqRsEsI4jULtM0-2" value="" style="edgeStyle=orthogonalEdgeStyle;rounded=0;orthogonalLoop=1;jettySize=auto;html=1;" edge="1" parent="Thk7iztbl-1dd6wseugb-1" source="KpsWwVrqRsEsI4jULtM0-3" target="KpsWwVrqRsEsI4jULtM0-4">
          <mxGeometry relative="1" as="geometry" />
        </mxCell>
        <mxCell id="KpsWwVrqRsEsI4jULtM0-3" value="CREATE DATA MASTER" style="shape=parallelogram;perimeter=parallelogramPerimeter;whiteSpace=wrap;html=1;fixedSize=1;" vertex="1" parent="Thk7iztbl-1dd6wseugb-1">
          <mxGeometry x="180" y="370" width="190" height="60" as="geometry" />
        </mxCell>
        <mxCell id="KpsWwVrqRsEsI4jULtM0-6" value="" style="edgeStyle=orthogonalEdgeStyle;rounded=0;orthogonalLoop=1;jettySize=auto;html=1;" edge="1" parent="Thk7iztbl-1dd6wseugb-1" source="KpsWwVrqRsEsI4jULtM0-4" target="KpsWwVrqRsEsI4jULtM0-5">
          <mxGeometry relative="1" as="geometry" />
        </mxCell>
        <mxCell id="KpsWwVrqRsEsI4jULtM0-4" value="&lt;div&gt;INPUT DATA MASTER&lt;/div&gt;" style="rounded=0;whiteSpace=wrap;html=1;" vertex="1" parent="Thk7iztbl-1dd6wseugb-1">
          <mxGeometry x="440" y="370" width="180" height="60" as="geometry" />
        </mxCell>
        <mxCell id="KpsWwVrqRsEsI4jULtM0-5" value="END" style="ellipse;whiteSpace=wrap;html=1;aspect=fixed;" vertex="1" parent="Thk7iztbl-1dd6wseugb-1">
          <mxGeometry x="710" y="375" width="50" height="50" as="geometry" />
        </mxCell>
      </root>
    </mxGraphModel>
  </diagram>
</mxfile>
